<?xml version="1.0" encoding="UTF-8" standalone="no"?>
<!DOCTYPE svg PUBLIC "-//W3C//DTD SVG 1.1//EN"
 "http://www.w3.org/Graphics/SVG/1.1/DTD/svg11.dtd">
<!-- Generated by graphviz version 2.38.0 (20140413.2041)
 -->
<!-- Title: %3 Pages: 1 -->
<svg width="766pt" height="404pt"
 viewBox="0.00 0.00 765.82 404.00" xmlns="http://www.w3.org/2000/svg" xmlns:xlink="http://www.w3.org/1999/xlink">
<g id="graph0" class="graph" transform="scale(1 1) rotate(0) translate(4 400)">
<title>%3</title>
<polygon fill="white" stroke="none" points="-4,4 -4,-400 761.817,-400 761.817,4 -4,4"/>
<!-- [root] google_compute_instance.Firstserver -->
<g id="node1" class="node"><title>[root] google_compute_instance.Firstserver</title>
<polygon fill="none" stroke="black" points="419.73,-252 132.73,-252 132.73,-216 419.73,-216 419.73,-252"/>
<text text-anchor="middle" x="276.23" y="-230.3" font-family="Times,serif" font-size="14.00">google_compute_instance.Firstserver</text>
</g>
<!-- [root] google_compute_subnetwork.dev&#45;subnet -->
<g id="node3" class="node"><title>[root] google_compute_subnetwork.dev&#45;subnet</title>
<polygon fill="none" stroke="black" points="459.73,-180 150.73,-180 150.73,-144 459.73,-144 459.73,-180"/>
<text text-anchor="middle" x="305.23" y="-158.3" font-family="Times,serif" font-size="14.00">google_compute_subnetwork.dev&#45;subnet</text>
</g>
<!-- [root] google_compute_instance.Firstserver&#45;&gt;[root] google_compute_subnetwork.dev&#45;subnet -->
<g id="edge1" class="edge"><title>[root] google_compute_instance.Firstserver&#45;&gt;[root] google_compute_subnetwork.dev&#45;subnet</title>
<path fill="none" stroke="black" d="M283.399,-215.697C286.665,-207.813 290.604,-198.304 294.232,-189.546"/>
<polygon fill="black" stroke="black" points="297.55,-190.683 298.144,-180.104 291.083,-188.003 297.55,-190.683"/>
</g>
<!-- [root] google_compute_network.our_development_network -->
<g id="node2" class="node"><title>[root] google_compute_network.our_development_network</title>
<polygon fill="none" stroke="black" points="516.73,-108 121.73,-108 121.73,-72 516.73,-72 516.73,-108"/>
<text text-anchor="middle" x="319.23" y="-86.3" font-family="Times,serif" font-size="14.00">google_compute_network.our_development_network</text>
</g>
<!-- [root] provider.google -->
<g id="node5" class="node"><title>[root] provider.google</title>
<polygon fill="none" stroke="black" points="435.23,-36 317.426,-18 435.23,-3.55271e-15 553.035,-18 435.23,-36"/>
<text text-anchor="middle" x="435.23" y="-14.3" font-family="Times,serif" font-size="14.00">provider.google</text>
</g>
<!-- [root] google_compute_network.our_development_network&#45;&gt;[root] provider.google -->
<g id="edge2" class="edge"><title>[root] google_compute_network.our_development_network&#45;&gt;[root] provider.google</title>
<path fill="none" stroke="black" d="M347.607,-71.8761C364.628,-61.6048 386.301,-48.5259 403.834,-37.9456"/>
<polygon fill="black" stroke="black" points="405.826,-40.8321 412.579,-32.6687 402.209,-34.8388 405.826,-40.8321"/>
</g>
<!-- [root] google_compute_subnetwork.dev&#45;subnet&#45;&gt;[root] google_compute_network.our_development_network -->
<g id="edge3" class="edge"><title>[root] google_compute_subnetwork.dev&#45;subnet&#45;&gt;[root] google_compute_network.our_development_network</title>
<path fill="none" stroke="black" d="M308.691,-143.697C310.234,-135.983 312.088,-126.712 313.808,-118.112"/>
<polygon fill="black" stroke="black" points="317.28,-118.597 315.809,-108.104 310.416,-117.224 317.28,-118.597"/>
</g>
<!-- [root] google_container_cluster.kubey -->
<g id="node4" class="node"><title>[root] google_container_cluster.kubey</title>
<polygon fill="none" stroke="black" points="682.23,-252 438.23,-252 438.23,-216 682.23,-216 682.23,-252"/>
<text text-anchor="middle" x="560.23" y="-230.3" font-family="Times,serif" font-size="14.00">google_container_cluster.kubey</text>
</g>
<!-- [root] google_container_cluster.kubey&#45;&gt;[root] provider.google -->
<g id="edge4" class="edge"><title>[root] google_container_cluster.kubey&#45;&gt;[root] provider.google</title>
<path fill="none" stroke="black" d="M560.801,-215.693C560.976,-184.099 557.255,-116.264 525.23,-72 513.571,-55.8856 495.381,-43.8503 478.396,-35.3568"/>
<polygon fill="black" stroke="black" points="479.672,-32.0891 469.134,-30.9992 476.692,-38.4232 479.672,-32.0891"/>
</g>
<!-- [root] meta.count&#45;boundary (EachMode fixup) -->
<g id="node6" class="node"><title>[root] meta.count&#45;boundary (EachMode fixup)</title>
<ellipse fill="none" stroke="black" cx="224.23" cy="-306" rx="224.46" ry="18"/>
<text text-anchor="middle" x="224.23" y="-302.3" font-family="Times,serif" font-size="14.00">[root] meta.count&#45;boundary (EachMode fixup)</text>
</g>
<!-- [root] meta.count&#45;boundary (EachMode fixup)&#45;&gt;[root] google_compute_instance.Firstserver -->
<g id="edge5" class="edge"><title>[root] meta.count&#45;boundary (EachMode fixup)&#45;&gt;[root] google_compute_instance.Firstserver</title>
<path fill="none" stroke="black" d="M237.084,-287.697C243.255,-279.389 250.767,-269.277 257.554,-260.141"/>
<polygon fill="black" stroke="black" points="260.37,-262.219 263.524,-252.104 254.751,-258.045 260.37,-262.219"/>
</g>
<!-- [root] meta.count&#45;boundary (EachMode fixup)&#45;&gt;[root] google_container_cluster.kubey -->
<g id="edge6" class="edge"><title>[root] meta.count&#45;boundary (EachMode fixup)&#45;&gt;[root] google_container_cluster.kubey</title>
<path fill="none" stroke="black" d="M300.894,-289.028C350.751,-278.642 416.026,-265.042 468.615,-254.086"/>
<polygon fill="black" stroke="black" points="469.542,-257.469 478.617,-252.003 468.114,-250.616 469.542,-257.469"/>
</g>
<!-- [root] provider.google (close) -->
<g id="node7" class="node"><title>[root] provider.google (close)</title>
<ellipse fill="none" stroke="black" cx="612.23" cy="-306" rx="145.674" ry="18"/>
<text text-anchor="middle" x="612.23" y="-302.3" font-family="Times,serif" font-size="14.00">[root] provider.google (close)</text>
</g>
<!-- [root] provider.google (close)&#45;&gt;[root] google_compute_instance.Firstserver -->
<g id="edge7" class="edge"><title>[root] provider.google (close)&#45;&gt;[root] google_compute_instance.Firstserver</title>
<path fill="none" stroke="black" d="M541.384,-290.24C490.904,-279.724 422.595,-265.493 367.953,-254.109"/>
<polygon fill="black" stroke="black" points="368.42,-250.631 357.916,-252.018 366.992,-257.484 368.42,-250.631"/>
</g>
<!-- [root] provider.google (close)&#45;&gt;[root] google_container_cluster.kubey -->
<g id="edge8" class="edge"><title>[root] provider.google (close)&#45;&gt;[root] google_container_cluster.kubey</title>
<path fill="none" stroke="black" d="M599.642,-288.055C593.475,-279.753 585.921,-269.584 579.082,-260.378"/>
<polygon fill="black" stroke="black" points="581.836,-258.216 573.063,-252.275 576.217,-262.39 581.836,-258.216"/>
</g>
<!-- [root] root -->
<g id="node8" class="node"><title>[root] root</title>
<ellipse fill="none" stroke="black" cx="418.23" cy="-378" rx="58.4896" ry="18"/>
<text text-anchor="middle" x="418.23" y="-374.3" font-family="Times,serif" font-size="14.00">[root] root</text>
</g>
<!-- [root] root&#45;&gt;[root] meta.count&#45;boundary (EachMode fixup) -->
<g id="edge9" class="edge"><title>[root] root&#45;&gt;[root] meta.count&#45;boundary (EachMode fixup)</title>
<path fill="none" stroke="black" d="M381.74,-363.834C353.069,-353.488 312.655,-338.906 279.943,-327.103"/>
<polygon fill="black" stroke="black" points="281.094,-323.797 270.5,-323.695 278.718,-330.382 281.094,-323.797"/>
</g>
<!-- [root] root&#45;&gt;[root] provider.google (close) -->
<g id="edge10" class="edge"><title>[root] root&#45;&gt;[root] provider.google (close)</title>
<path fill="none" stroke="black" d="M454.72,-363.834C483.791,-353.344 524.934,-338.499 557.88,-326.611"/>
<polygon fill="black" stroke="black" points="559.16,-329.87 567.378,-323.184 556.784,-323.286 559.16,-329.87"/>
</g>
</g>
</svg>
